<?xml version="1.0" encoding="iso-8859-1"?>
<!-- Generator: Adobe Illustrator 19.0.0, SVG Export Plug-In . SVG Version: 6.00 Build 0)  -->
<svg version="1.1" id="Capa_1" xmlns="http://www.w3.org/2000/svg" xmlns:xlink="http://www.w3.org/1999/xlink" x="0px" y="0px"
	 viewBox="0 0 512 512" style="enable-background:new 0 0 512 512;" xml:space="preserve">
<g>
	<g>
		<path d="M449.633,271H61v45c0,37.603,19.995,72.924,51.885,91.601l-21.431,85.767C89.081,502.799,96.233,512,106,512h210
			c9.767,0,16.919-9.201,14.546-18.633l-18.354-73.447C385.863,408.123,442.737,346.183,449.633,271z"/>
	</g>
</g>
<g>
	<g>
		<path d="M451,181H271v60h180c16.569,0,30-13.433,30-30C481,194.431,467.569,181,451,181z"/>
	</g>
</g>
<g>
	<g>
		<rect x="61" y="90" width="180" height="151"/>
	</g>
</g>
<g>
	<g>
		<path d="M241,0H61C44.431,0,31,13.431,31,30v15c0,8.284,6.716,15,15,15h210c8.284,0,15-6.716,15-15V30C271,13.431,257.569,0,241,0
			z"/>
	</g>
</g>
<g>
</g>
<g>
</g>
<g>
</g>
<g>
</g>
<g>
</g>
<g>
</g>
<g>
</g>
<g>
</g>
<g>
</g>
<g>
</g>
<g>
</g>
<g>
</g>
<g>
</g>
<g>
</g>
<g>
</g>
</svg>
