<svg height="512" viewBox="0 0 510 510" width="512" xmlns="http://www.w3.org/2000/svg"><path d="M255 1.615L0 129.115v379.271h510V129.115zm225 476.77H30V147.656l225-112.5 225 112.5z"/><path d="M150 298.385h30v30h-30zM330 298.385h30v30h-30z"/><path d="M153.686 133.385L121.333 246.62C102.632 257.36 90 277.52 90 300.588v147.797h90v-60h150v60h90V300.588c0-23.068-12.632-43.228-31.333-53.968l-32.353-113.235zm180 30l21.429 75H154.886l21.429-75zM150 418.385h-30v-30h30zm240 0h-30v-30h30zm0-60H120v-57.797c0-17.757 14.446-32.203 32.203-32.203h205.594c17.757 0 32.203 14.446 32.203 32.203z"/></svg>