<svg xmlns="http://www.w3.org/2000/svg" width="512" height="512"><path d="M449.633 271H61v45c0 37.603 19.995 72.924 51.885 91.601l-21.431 85.767C89.081 502.799 96.233 512 106 512h210c9.767 0 16.919-9.201 14.546-18.633l-18.354-73.447c73.671-11.797 130.545-73.737 137.441-148.92zM451 181H271v60h180c16.569 0 30-13.433 30-30 0-16.569-13.431-30-30-30zM61 90h180v151H61zM241 0H61C44.431 0 31 13.431 31 30v15c0 8.284 6.716 15 15 15h210c8.284 0 15-6.716 15-15V30c0-16.569-13.431-30-30-30z" data-original="#000000" class="active-path" data-old_color="#000000" fill="#004489"/></svg>